<mxfile host="app.diagrams.net" modified="2024-02-07T17:47:36.991Z" agent="Mozilla/5.0 (Windows NT 10.0; Win64; x64) AppleWebKit/537.36 (KHTML, like Gecko) Chrome/121.0.0.0 Safari/537.36" etag="pVuoimZ_aX4uQpExWWQI" version="23.1.1" type="device">
  <diagram name="PÃ¡gina-1" id="18CticHyJ66Ub70C9Mlj">
    <mxGraphModel dx="303" dy="182" grid="1" gridSize="10" guides="1" tooltips="1" connect="1" arrows="1" fold="1" page="1" pageScale="5" pageWidth="1169" pageHeight="827" math="1" shadow="0">
      <root>
        <mxCell id="0" />
        <mxCell id="1" parent="0" />
        <mxCell id="sVLvqpojGDzog6fsUabl-5" style="edgeStyle=orthogonalEdgeStyle;rounded=0;orthogonalLoop=1;jettySize=auto;html=1;exitX=1;exitY=0.25;exitDx=0;exitDy=0;entryX=0;entryY=0.25;entryDx=0;entryDy=0;" edge="1" parent="1" source="sVLvqpojGDzog6fsUabl-1" target="sVLvqpojGDzog6fsUabl-2">
          <mxGeometry relative="1" as="geometry" />
        </mxCell>
        <mxCell id="sVLvqpojGDzog6fsUabl-55" value="$$i_a$$" style="edgeLabel;html=1;align=center;verticalAlign=middle;resizable=0;points=[];" vertex="1" connectable="0" parent="sVLvqpojGDzog6fsUabl-5">
          <mxGeometry x="-0.1657" y="1" relative="1" as="geometry">
            <mxPoint y="-21" as="offset" />
          </mxGeometry>
        </mxCell>
        <mxCell id="sVLvqpojGDzog6fsUabl-6" style="edgeStyle=orthogonalEdgeStyle;rounded=0;orthogonalLoop=1;jettySize=auto;html=1;exitX=1;exitY=0.5;exitDx=0;exitDy=0;entryX=0;entryY=0.5;entryDx=0;entryDy=0;" edge="1" parent="1" source="sVLvqpojGDzog6fsUabl-1" target="sVLvqpojGDzog6fsUabl-2">
          <mxGeometry relative="1" as="geometry" />
        </mxCell>
        <mxCell id="sVLvqpojGDzog6fsUabl-56" value="$$i_b$$" style="edgeLabel;html=1;align=center;verticalAlign=middle;resizable=0;points=[];" vertex="1" connectable="0" parent="sVLvqpojGDzog6fsUabl-6">
          <mxGeometry x="-0.1257" y="-1" relative="1" as="geometry">
            <mxPoint y="-21" as="offset" />
          </mxGeometry>
        </mxCell>
        <mxCell id="sVLvqpojGDzog6fsUabl-7" style="edgeStyle=orthogonalEdgeStyle;rounded=0;orthogonalLoop=1;jettySize=auto;html=1;exitX=1;exitY=0.75;exitDx=0;exitDy=0;entryX=0;entryY=0.75;entryDx=0;entryDy=0;" edge="1" parent="1" source="sVLvqpojGDzog6fsUabl-1" target="sVLvqpojGDzog6fsUabl-2">
          <mxGeometry relative="1" as="geometry" />
        </mxCell>
        <mxCell id="sVLvqpojGDzog6fsUabl-57" value="$$i_c$$" style="edgeLabel;html=1;align=center;verticalAlign=middle;resizable=0;points=[];" vertex="1" connectable="0" parent="sVLvqpojGDzog6fsUabl-7">
          <mxGeometry x="-0.0057" y="2" relative="1" as="geometry">
            <mxPoint x="-5" y="-20" as="offset" />
          </mxGeometry>
        </mxCell>
        <mxCell id="sVLvqpojGDzog6fsUabl-1" value="MAS" style="rounded=0;whiteSpace=wrap;html=1;" vertex="1" parent="1">
          <mxGeometry x="800" y="269.93" width="80" height="170" as="geometry" />
        </mxCell>
        <mxCell id="sVLvqpojGDzog6fsUabl-22" style="edgeStyle=orthogonalEdgeStyle;rounded=0;orthogonalLoop=1;jettySize=auto;html=1;exitX=1;exitY=0.25;exitDx=0;exitDy=0;entryX=0;entryY=0.25;entryDx=0;entryDy=0;" edge="1" parent="1" source="sVLvqpojGDzog6fsUabl-2" target="sVLvqpojGDzog6fsUabl-21">
          <mxGeometry relative="1" as="geometry" />
        </mxCell>
        <mxCell id="sVLvqpojGDzog6fsUabl-58" value="$$i_\alpha$$" style="edgeLabel;html=1;align=center;verticalAlign=middle;resizable=0;points=[];" vertex="1" connectable="0" parent="sVLvqpojGDzog6fsUabl-22">
          <mxGeometry x="-0.2857" y="6" relative="1" as="geometry">
            <mxPoint x="2" y="-16" as="offset" />
          </mxGeometry>
        </mxCell>
        <mxCell id="sVLvqpojGDzog6fsUabl-23" style="edgeStyle=orthogonalEdgeStyle;rounded=0;orthogonalLoop=1;jettySize=auto;html=1;exitX=1;exitY=0.75;exitDx=0;exitDy=0;entryX=0;entryY=0.75;entryDx=0;entryDy=0;" edge="1" parent="1" source="sVLvqpojGDzog6fsUabl-2" target="sVLvqpojGDzog6fsUabl-21">
          <mxGeometry relative="1" as="geometry" />
        </mxCell>
        <mxCell id="sVLvqpojGDzog6fsUabl-59" value="$$i_\beta$$" style="edgeLabel;html=1;align=center;verticalAlign=middle;resizable=0;points=[];" vertex="1" connectable="0" parent="sVLvqpojGDzog6fsUabl-23">
          <mxGeometry x="0.1143" relative="1" as="geometry">
            <mxPoint x="-8" y="-22" as="offset" />
          </mxGeometry>
        </mxCell>
        <mxCell id="sVLvqpojGDzog6fsUabl-2" value="$$T_{23}$$" style="rounded=0;whiteSpace=wrap;html=1;" vertex="1" parent="1">
          <mxGeometry x="930" y="269.93" width="80" height="170" as="geometry" />
        </mxCell>
        <mxCell id="sVLvqpojGDzog6fsUabl-10" style="edgeStyle=orthogonalEdgeStyle;rounded=0;orthogonalLoop=1;jettySize=auto;html=1;entryX=0;entryY=0.5;entryDx=0;entryDy=0;" edge="1" parent="1" source="sVLvqpojGDzog6fsUabl-3" target="sVLvqpojGDzog6fsUabl-1">
          <mxGeometry relative="1" as="geometry" />
        </mxCell>
        <mxCell id="sVLvqpojGDzog6fsUabl-53" value="$$v_b$$" style="edgeLabel;html=1;align=center;verticalAlign=middle;resizable=0;points=[];" vertex="1" connectable="0" parent="sVLvqpojGDzog6fsUabl-10">
          <mxGeometry x="0.5968" y="1" relative="1" as="geometry">
            <mxPoint y="-19" as="offset" />
          </mxGeometry>
        </mxCell>
        <mxCell id="sVLvqpojGDzog6fsUabl-11" style="edgeStyle=orthogonalEdgeStyle;rounded=0;orthogonalLoop=1;jettySize=auto;html=1;exitX=1;exitY=0.25;exitDx=0;exitDy=0;entryX=0;entryY=0.25;entryDx=0;entryDy=0;" edge="1" parent="1" source="sVLvqpojGDzog6fsUabl-3" target="sVLvqpojGDzog6fsUabl-1">
          <mxGeometry relative="1" as="geometry" />
        </mxCell>
        <mxCell id="sVLvqpojGDzog6fsUabl-54" value="$$v_a$$" style="edgeLabel;html=1;align=center;verticalAlign=middle;resizable=0;points=[];" vertex="1" connectable="0" parent="sVLvqpojGDzog6fsUabl-11">
          <mxGeometry x="0.5524" y="-1" relative="1" as="geometry">
            <mxPoint y="-23" as="offset" />
          </mxGeometry>
        </mxCell>
        <mxCell id="sVLvqpojGDzog6fsUabl-12" style="edgeStyle=orthogonalEdgeStyle;rounded=0;orthogonalLoop=1;jettySize=auto;html=1;exitX=1;exitY=0.75;exitDx=0;exitDy=0;entryX=0;entryY=0.75;entryDx=0;entryDy=0;" edge="1" parent="1" source="sVLvqpojGDzog6fsUabl-3" target="sVLvqpojGDzog6fsUabl-1">
          <mxGeometry relative="1" as="geometry" />
        </mxCell>
        <mxCell id="sVLvqpojGDzog6fsUabl-51" value="$$v_c$$" style="edgeLabel;html=1;align=center;verticalAlign=middle;resizable=0;points=[];" vertex="1" connectable="0" parent="sVLvqpojGDzog6fsUabl-12">
          <mxGeometry x="0.5746" y="3" relative="1" as="geometry">
            <mxPoint y="-19" as="offset" />
          </mxGeometry>
        </mxCell>
        <mxCell id="sVLvqpojGDzog6fsUabl-3" value="$$T_{32}$$" style="rounded=0;whiteSpace=wrap;html=1;" vertex="1" parent="1">
          <mxGeometry x="630" y="269.93" width="80" height="170" as="geometry" />
        </mxCell>
        <mxCell id="sVLvqpojGDzog6fsUabl-19" style="edgeStyle=orthogonalEdgeStyle;rounded=0;orthogonalLoop=1;jettySize=auto;html=1;exitX=1;exitY=0.25;exitDx=0;exitDy=0;entryX=0;entryY=0.25;entryDx=0;entryDy=0;" edge="1" parent="1" source="sVLvqpojGDzog6fsUabl-4" target="sVLvqpojGDzog6fsUabl-3">
          <mxGeometry relative="1" as="geometry" />
        </mxCell>
        <mxCell id="sVLvqpojGDzog6fsUabl-60" value="$$v_\alpha$$" style="edgeLabel;html=1;align=center;verticalAlign=middle;resizable=0;points=[];" vertex="1" connectable="0" parent="sVLvqpojGDzog6fsUabl-19">
          <mxGeometry x="-0.3397" y="3" relative="1" as="geometry">
            <mxPoint y="-19" as="offset" />
          </mxGeometry>
        </mxCell>
        <mxCell id="sVLvqpojGDzog6fsUabl-20" style="edgeStyle=orthogonalEdgeStyle;rounded=0;orthogonalLoop=1;jettySize=auto;html=1;exitX=1;exitY=0.75;exitDx=0;exitDy=0;entryX=0;entryY=0.75;entryDx=0;entryDy=0;" edge="1" parent="1" source="sVLvqpojGDzog6fsUabl-4" target="sVLvqpojGDzog6fsUabl-3">
          <mxGeometry relative="1" as="geometry" />
        </mxCell>
        <mxCell id="sVLvqpojGDzog6fsUabl-61" value="$$v_\beta$$" style="edgeLabel;html=1;align=center;verticalAlign=middle;resizable=0;points=[];" vertex="1" connectable="0" parent="sVLvqpojGDzog6fsUabl-20">
          <mxGeometry x="-0.2508" y="-1" relative="1" as="geometry">
            <mxPoint y="-23" as="offset" />
          </mxGeometry>
        </mxCell>
        <mxCell id="sVLvqpojGDzog6fsUabl-4" value="$$P(\theta_s)$$" style="rounded=0;whiteSpace=wrap;html=1;" vertex="1" parent="1">
          <mxGeometry x="515" y="269.93" width="70" height="170" as="geometry" />
        </mxCell>
        <mxCell id="sVLvqpojGDzog6fsUabl-8" value="" style="triangle;whiteSpace=wrap;html=1;" vertex="1" parent="1">
          <mxGeometry x="740" y="289.93" width="30" height="40" as="geometry" />
        </mxCell>
        <mxCell id="sVLvqpojGDzog6fsUabl-9" value="G" style="text;html=1;strokeColor=none;fillColor=none;align=center;verticalAlign=middle;whiteSpace=wrap;rounded=0;" vertex="1" parent="1">
          <mxGeometry x="740" y="299.93" width="20" height="20" as="geometry" />
        </mxCell>
        <mxCell id="sVLvqpojGDzog6fsUabl-13" value="" style="triangle;whiteSpace=wrap;html=1;" vertex="1" parent="1">
          <mxGeometry x="740" y="379.93" width="30" height="40" as="geometry" />
        </mxCell>
        <mxCell id="sVLvqpojGDzog6fsUabl-14" value="G" style="text;html=1;strokeColor=none;fillColor=none;align=center;verticalAlign=middle;whiteSpace=wrap;rounded=0;" vertex="1" parent="1">
          <mxGeometry x="740" y="389.93" width="20" height="20" as="geometry" />
        </mxCell>
        <mxCell id="sVLvqpojGDzog6fsUabl-15" value="" style="triangle;whiteSpace=wrap;html=1;" vertex="1" parent="1">
          <mxGeometry x="740" y="334.93" width="30" height="40" as="geometry" />
        </mxCell>
        <mxCell id="sVLvqpojGDzog6fsUabl-16" value="G" style="text;html=1;strokeColor=none;fillColor=none;align=center;verticalAlign=middle;whiteSpace=wrap;rounded=0;" vertex="1" parent="1">
          <mxGeometry x="740" y="344.93" width="20" height="20" as="geometry" />
        </mxCell>
        <mxCell id="sVLvqpojGDzog6fsUabl-47" style="edgeStyle=orthogonalEdgeStyle;rounded=0;orthogonalLoop=1;jettySize=auto;html=1;exitX=1;exitY=0.25;exitDx=0;exitDy=0;entryX=0.5;entryY=0;entryDx=0;entryDy=0;" edge="1" parent="1" source="sVLvqpojGDzog6fsUabl-21" target="sVLvqpojGDzog6fsUabl-33">
          <mxGeometry relative="1" as="geometry">
            <Array as="points">
              <mxPoint x="1190" y="312" />
              <mxPoint x="1190" y="220" />
              <mxPoint x="370" y="220" />
            </Array>
          </mxGeometry>
        </mxCell>
        <mxCell id="sVLvqpojGDzog6fsUabl-63" value="$$i_{dm}$$" style="edgeLabel;html=1;align=center;verticalAlign=middle;resizable=0;points=[];" vertex="1" connectable="0" parent="sVLvqpojGDzog6fsUabl-47">
          <mxGeometry x="-0.9433" y="-1" relative="1" as="geometry">
            <mxPoint y="-23" as="offset" />
          </mxGeometry>
        </mxCell>
        <mxCell id="sVLvqpojGDzog6fsUabl-48" style="edgeStyle=orthogonalEdgeStyle;rounded=0;orthogonalLoop=1;jettySize=auto;html=1;exitX=1;exitY=0.75;exitDx=0;exitDy=0;entryX=0.5;entryY=1;entryDx=0;entryDy=0;" edge="1" parent="1" source="sVLvqpojGDzog6fsUabl-21" target="sVLvqpojGDzog6fsUabl-37">
          <mxGeometry relative="1" as="geometry">
            <Array as="points">
              <mxPoint x="1190" y="397" />
              <mxPoint x="1190" y="490" />
              <mxPoint x="370" y="490" />
            </Array>
          </mxGeometry>
        </mxCell>
        <mxCell id="sVLvqpojGDzog6fsUabl-62" value="$$i_{qm}$$" style="edgeLabel;html=1;align=center;verticalAlign=middle;resizable=0;points=[];" vertex="1" connectable="0" parent="sVLvqpojGDzog6fsUabl-48">
          <mxGeometry x="-0.9456" y="-1" relative="1" as="geometry">
            <mxPoint y="-23" as="offset" />
          </mxGeometry>
        </mxCell>
        <mxCell id="sVLvqpojGDzog6fsUabl-21" value="$$P(-\theta_s)$$" style="rounded=0;whiteSpace=wrap;html=1;" vertex="1" parent="1">
          <mxGeometry x="1060" y="269.93" width="70" height="170" as="geometry" />
        </mxCell>
        <mxCell id="sVLvqpojGDzog6fsUabl-24" value="PI" style="rounded=0;whiteSpace=wrap;html=1;" vertex="1" parent="1">
          <mxGeometry x="430" y="364.93" width="40" height="40" as="geometry" />
        </mxCell>
        <mxCell id="sVLvqpojGDzog6fsUabl-25" value="PI" style="rounded=0;whiteSpace=wrap;html=1;" vertex="1" parent="1">
          <mxGeometry x="430" y="279.93" width="40" height="40" as="geometry" />
        </mxCell>
        <mxCell id="sVLvqpojGDzog6fsUabl-31" style="edgeStyle=orthogonalEdgeStyle;rounded=0;orthogonalLoop=1;jettySize=auto;html=1;entryX=0.016;entryY=0.173;entryDx=0;entryDy=0;entryPerimeter=0;" edge="1" parent="1" source="sVLvqpojGDzog6fsUabl-25" target="sVLvqpojGDzog6fsUabl-4">
          <mxGeometry relative="1" as="geometry" />
        </mxCell>
        <mxCell id="sVLvqpojGDzog6fsUabl-67" value="$$v_{dref}$$" style="edgeLabel;html=1;align=center;verticalAlign=middle;resizable=0;points=[];" vertex="1" connectable="0" parent="sVLvqpojGDzog6fsUabl-31">
          <mxGeometry x="-0.3456" y="3" relative="1" as="geometry">
            <mxPoint x="5" y="-17" as="offset" />
          </mxGeometry>
        </mxCell>
        <mxCell id="sVLvqpojGDzog6fsUabl-32" style="edgeStyle=orthogonalEdgeStyle;rounded=0;orthogonalLoop=1;jettySize=auto;html=1;entryX=0.001;entryY=0.678;entryDx=0;entryDy=0;entryPerimeter=0;" edge="1" parent="1" source="sVLvqpojGDzog6fsUabl-24" target="sVLvqpojGDzog6fsUabl-4">
          <mxGeometry relative="1" as="geometry" />
        </mxCell>
        <mxCell id="sVLvqpojGDzog6fsUabl-68" value="$$v_{qref}$$" style="edgeLabel;html=1;align=center;verticalAlign=middle;resizable=0;points=[];" vertex="1" connectable="0" parent="sVLvqpojGDzog6fsUabl-32">
          <mxGeometry x="-0.1498" y="1" relative="1" as="geometry">
            <mxPoint y="-19" as="offset" />
          </mxGeometry>
        </mxCell>
        <mxCell id="sVLvqpojGDzog6fsUabl-36" style="edgeStyle=orthogonalEdgeStyle;rounded=0;orthogonalLoop=1;jettySize=auto;html=1;entryX=0;entryY=0.5;entryDx=0;entryDy=0;" edge="1" parent="1" source="sVLvqpojGDzog6fsUabl-33" target="sVLvqpojGDzog6fsUabl-25">
          <mxGeometry relative="1" as="geometry" />
        </mxCell>
        <mxCell id="sVLvqpojGDzog6fsUabl-33" value="" style="ellipse;whiteSpace=wrap;html=1;aspect=fixed;" vertex="1" parent="1">
          <mxGeometry x="350" y="279.93" width="40" height="40" as="geometry" />
        </mxCell>
        <mxCell id="sVLvqpojGDzog6fsUabl-34" value="" style="endArrow=none;html=1;rounded=0;entryX=1;entryY=0;entryDx=0;entryDy=0;exitX=0;exitY=1;exitDx=0;exitDy=0;" edge="1" parent="1" source="sVLvqpojGDzog6fsUabl-33" target="sVLvqpojGDzog6fsUabl-33">
          <mxGeometry width="50" height="50" relative="1" as="geometry">
            <mxPoint x="345" y="324.93" as="sourcePoint" />
            <mxPoint x="395" y="274.93" as="targetPoint" />
          </mxGeometry>
        </mxCell>
        <mxCell id="sVLvqpojGDzog6fsUabl-35" value="" style="endArrow=none;html=1;rounded=0;exitX=0;exitY=0;exitDx=0;exitDy=0;entryX=1;entryY=1;entryDx=0;entryDy=0;" edge="1" parent="1" source="sVLvqpojGDzog6fsUabl-33" target="sVLvqpojGDzog6fsUabl-33">
          <mxGeometry width="50" height="50" relative="1" as="geometry">
            <mxPoint x="345" y="269.93" as="sourcePoint" />
            <mxPoint x="390" y="324.93" as="targetPoint" />
          </mxGeometry>
        </mxCell>
        <mxCell id="sVLvqpojGDzog6fsUabl-40" style="edgeStyle=orthogonalEdgeStyle;rounded=0;orthogonalLoop=1;jettySize=auto;html=1;entryX=0;entryY=0.5;entryDx=0;entryDy=0;" edge="1" parent="1" source="sVLvqpojGDzog6fsUabl-37" target="sVLvqpojGDzog6fsUabl-24">
          <mxGeometry relative="1" as="geometry" />
        </mxCell>
        <mxCell id="sVLvqpojGDzog6fsUabl-37" value="" style="ellipse;whiteSpace=wrap;html=1;aspect=fixed;" vertex="1" parent="1">
          <mxGeometry x="350" y="364.93" width="40" height="40" as="geometry" />
        </mxCell>
        <mxCell id="sVLvqpojGDzog6fsUabl-38" value="" style="endArrow=none;html=1;rounded=0;entryX=1;entryY=0;entryDx=0;entryDy=0;exitX=0;exitY=1;exitDx=0;exitDy=0;" edge="1" parent="1" source="sVLvqpojGDzog6fsUabl-37" target="sVLvqpojGDzog6fsUabl-37">
          <mxGeometry width="50" height="50" relative="1" as="geometry">
            <mxPoint x="345" y="409.93" as="sourcePoint" />
            <mxPoint x="395" y="359.93" as="targetPoint" />
          </mxGeometry>
        </mxCell>
        <mxCell id="sVLvqpojGDzog6fsUabl-39" value="" style="endArrow=none;html=1;rounded=0;exitX=0;exitY=0;exitDx=0;exitDy=0;entryX=1;entryY=1;entryDx=0;entryDy=0;" edge="1" parent="1" source="sVLvqpojGDzog6fsUabl-37" target="sVLvqpojGDzog6fsUabl-37">
          <mxGeometry width="50" height="50" relative="1" as="geometry">
            <mxPoint x="345" y="354.93" as="sourcePoint" />
            <mxPoint x="390" y="409.93" as="targetPoint" />
          </mxGeometry>
        </mxCell>
        <mxCell id="sVLvqpojGDzog6fsUabl-41" value="" style="endArrow=classic;html=1;rounded=0;" edge="1" parent="1">
          <mxGeometry width="50" height="50" relative="1" as="geometry">
            <mxPoint x="310" y="299.93" as="sourcePoint" />
            <mxPoint x="350" y="299.93" as="targetPoint" />
          </mxGeometry>
        </mxCell>
        <mxCell id="sVLvqpojGDzog6fsUabl-46" value="" style="endArrow=classic;html=1;rounded=0;" edge="1" parent="1">
          <mxGeometry width="50" height="50" relative="1" as="geometry">
            <mxPoint x="310" y="384.43" as="sourcePoint" />
            <mxPoint x="350" y="384.43" as="targetPoint" />
          </mxGeometry>
        </mxCell>
        <mxCell id="sVLvqpojGDzog6fsUabl-65" value="$$i_{dref}$$" style="text;html=1;strokeColor=none;fillColor=none;align=center;verticalAlign=middle;whiteSpace=wrap;rounded=0;" vertex="1" parent="1">
          <mxGeometry x="260" y="279.93" width="60" height="30" as="geometry" />
        </mxCell>
        <mxCell id="sVLvqpojGDzog6fsUabl-66" value="$$i_{qref}$$" style="text;html=1;strokeColor=none;fillColor=none;align=center;verticalAlign=middle;whiteSpace=wrap;rounded=0;" vertex="1" parent="1">
          <mxGeometry x="260" y="364.93" width="60" height="30" as="geometry" />
        </mxCell>
        <mxCell id="sVLvqpojGDzog6fsUabl-74" value="" style="shape=cross;whiteSpace=wrap;html=1;strokeColor=default;strokeWidth=0.1;size=0.11999511718748863;fillColor=#000000;" vertex="1" parent="1">
          <mxGeometry x="340" y="279.93" width="10" height="10" as="geometry" />
        </mxCell>
        <mxCell id="sVLvqpojGDzog6fsUabl-81" value="" style="shape=cross;whiteSpace=wrap;html=1;strokeColor=default;strokeWidth=0.1;size=0.11999511718748863;fillColor=#000000;" vertex="1" parent="1">
          <mxGeometry x="340" y="369.93" width="10" height="10" as="geometry" />
        </mxCell>
        <mxCell id="sVLvqpojGDzog6fsUabl-82" value="" style="endArrow=none;html=1;rounded=0;" edge="1" parent="1">
          <mxGeometry width="50" height="50" relative="1" as="geometry">
            <mxPoint x="390" y="270" as="sourcePoint" />
            <mxPoint x="380" y="270" as="targetPoint" />
          </mxGeometry>
        </mxCell>
        <mxCell id="sVLvqpojGDzog6fsUabl-83" value="" style="endArrow=none;html=1;rounded=0;" edge="1" parent="1">
          <mxGeometry width="50" height="50" relative="1" as="geometry">
            <mxPoint x="380" y="410" as="sourcePoint" />
            <mxPoint x="390" y="410" as="targetPoint" />
          </mxGeometry>
        </mxCell>
        <mxCell id="sVLvqpojGDzog6fsUabl-84" value="" style="endArrow=classic;html=1;rounded=0;" edge="1" parent="1">
          <mxGeometry width="50" height="50" relative="1" as="geometry">
            <mxPoint x="1100" y="470" as="sourcePoint" />
            <mxPoint x="1100" y="439.93" as="targetPoint" />
          </mxGeometry>
        </mxCell>
        <mxCell id="sVLvqpojGDzog6fsUabl-85" value="$$\theta_s$$" style="edgeLabel;html=1;align=center;verticalAlign=middle;resizable=0;points=[];" vertex="1" connectable="0" parent="1">
          <mxGeometry x="1110.0038294166052" y="470.00433321029175" as="geometry">
            <mxPoint x="4" y="-8" as="offset" />
          </mxGeometry>
        </mxCell>
        <mxCell id="sVLvqpojGDzog6fsUabl-86" value="" style="endArrow=classic;html=1;rounded=0;entryX=0.5;entryY=1;entryDx=0;entryDy=0;" edge="1" parent="1" target="sVLvqpojGDzog6fsUabl-4">
          <mxGeometry width="50" height="50" relative="1" as="geometry">
            <mxPoint x="550" y="470" as="sourcePoint" />
            <mxPoint x="1110" y="449.93" as="targetPoint" />
          </mxGeometry>
        </mxCell>
        <mxCell id="sVLvqpojGDzog6fsUabl-87" value="$$\theta_s$$" style="edgeLabel;html=1;align=center;verticalAlign=middle;resizable=0;points=[];" vertex="1" connectable="0" parent="1">
          <mxGeometry x="1130.0038294166052" y="480.00433321029175" as="geometry">
            <mxPoint x="-565" y="-15" as="offset" />
          </mxGeometry>
        </mxCell>
      </root>
    </mxGraphModel>
  </diagram>
</mxfile>
